<svg width="243" height="24" viewBox="0 0 243 24" fill="none" xmlns="http://www.w3.org/2000/svg">
<path opacity="0.07" d="M35 0H3C1.3 0 0 1.3 0 3V21C0 22.7 1.4 24 3 24H35C36.7 24 38 22.7 38 21V3C38 1.3 36.6 0 35 0Z" fill="black"/>
<path d="M35 1C36.1 1 37 1.9 37 3V21C37 22.1 36.1 23 35 23H3C1.9 23 1 22.1 1 21V3C1 1.9 1.9 1 3 1H35Z" fill="#006FCF"/>
<path d="M8.971 10.268L9.745 12.144H8.203L8.971 10.268ZM25.046 10.346H22.069V11.173H24.998V12.412H22.075V13.334H25.052V14.073L27.129 11.828L25.052 9.488L25.046 10.346ZM10.983 8.006H14.978L15.865 9.941L16.687 8H27.057L28.135 9.19L29.25 8H34.013L30.494 11.852L33.977 15.68H29.143L28.065 14.49L26.94 15.68H10.03L9.536 14.49H8.406L7.911 15.68H4L7.286 8H10.716L10.983 8.006ZM19.646 9.084H17.407L15.907 12.62L14.282 9.084H12.06V13.894L10 9.084H8.007L5.625 14.596H7.18L7.674 13.406H10.27L10.764 14.596H13.484V10.661L15.235 14.602H16.425L18.165 10.673V14.603H19.623L19.647 9.083L19.646 9.084ZM28.986 11.852L31.517 9.084H29.695L28.094 10.81L26.546 9.084H20.652V14.602H26.462L28.076 12.864L29.624 14.602H31.499L28.987 11.852H28.986Z" fill="white"/>
<path opacity="0.07" d="M76 0H44C42.3 0 41 1.3 41 3V21C41 22.7 42.4 24 44 24H76C77.7 24 79 22.7 79 21V3C79 1.3 77.6 0 76 0Z" fill="black"/>
<path d="M76 1C77.1 1 78 1.9 78 3V21C78 22.1 77.1 23 76 23H44C42.9 23 42 22.1 42 21V3C42 1.9 42.9 1 44 1H76Z" fill="white"/>
<path d="M53.0005 12V15.7C53.0005 16 52.8005 16 52.5005 15.9C50.6005 15.1 49.5005 12.6 50.2005 10.5C50.6005 9.4 51.4005 8.5 52.5005 8.1C52.9005 7.9 53.0005 8 53.0005 8.3V12ZM55.0005 12V8.3C55.0005 8 55.0005 8 55.3005 8.1C57.4005 8.9 58.5005 11.4 57.7005 13.5C57.3005 14.6 56.5005 15.5 55.4005 15.9C55.0005 16.1 55.0005 16 55.0005 15.7V12V12ZM62.2005 5H54.0005C57.8005 5 60.8005 8.1 60.8005 12C60.8005 15.9 57.8005 19 54.0005 19H62.2005C66.0005 19 69.0005 15.9 69.0005 12C69.0005 8.1 66.0005 5 62.2005 5Z" fill="#3086C8"/>
<path opacity="0.07" d="M117 0H85C83.3 0 82 1.3 82 3V21C82 22.7 83.4 24 85 24H117C118.7 24 120 22.7 120 21V3C120 1.3 118.6 0 117 0Z" fill="black"/>
<path d="M117 1C118.1 1 119 1.9 119 3V21C119 22.1 118.1 23 117 23H85C83.9 23 83 22.1 83 21V3C83 1.9 83.9 1 85 1H117Z" fill="white"/>
<path d="M110.3 10.1H110C109.6 11.1 109.3 11.6 109 13.1H110.9C110.6 11.6 110.6 10.9 110.3 10.1V10.1ZM113.2 16H111.5C111.4 16 111.4 16 111.3 15.9L111.1 15L111 14.8H108.6C108.5 14.8 108.4 14.8 108.4 15L108.1 15.9C108.1 16 108 16 108 16H105.9L106.1 15.5L109 8.7C109 8.2 109.3 8 109.8 8H111.3C111.4 8 111.5 8 111.5 8.2L112.9 14.7C113 15.1 113.1 15.4 113.1 15.8C113.2 15.9 113.2 15.9 113.2 16V16ZM99.8 15.7L100.2 13.9C100.3 13.9 100.4 14 100.4 14C101.1 14.3 101.8 14.5 102.5 14.4C102.7 14.4 103 14.3 103.2 14.2C103.7 14 103.7 13.5 103.3 13.1C103.1 12.9 102.8 12.8 102.5 12.6C102.1 12.4 101.7 12.2 101.4 11.9C100.2 10.9 100.6 9.5 101.3 8.8C101.9 8.4 102.2 8 103 8C104.2 8 105.5 8 106.1 8.2H106.2C106.1 8.8 106 9.3 105.8 9.9C105.3 9.7 104.8 9.5 104.3 9.5C104 9.5 103.7 9.5 103.4 9.6C103.2 9.6 103.1 9.7 103 9.8C102.8 10 102.8 10.3 103 10.5L103.5 10.9C103.9 11.1 104.3 11.3 104.6 11.5C105.1 11.8 105.6 12.3 105.7 12.9C105.9 13.8 105.6 14.6 104.8 15.2C104.3 15.6 104.1 15.8 103.4 15.8C102 15.8 100.9 15.9 100 15.6C99.9 15.8 99.9 15.8 99.8 15.7V15.7ZM96.3 16C96.4 15.3 96.4 15.3 96.5 15C97 12.8 97.5 10.5 97.9 8.3C98 8.1 98 8 98.2 8H100C99.8 9.2 99.6 10.1 99.3 11.2C99 12.7 98.7 14.2 98.3 15.7C98.3 15.9 98.2 15.9 98 15.9L96.3 16ZM87 8.2C87 8.1 87.2 8 87.3 8H90.7C91.2 8 91.6 8.3 91.7 8.8L92.6 13.2C92.6 13.3 92.6 13.3 92.7 13.4C92.7 13.3 92.8 13.3 92.8 13.3L94.9 8.2C94.8 8.1 94.9 8 95 8H97.1C97.1 8.1 97.1 8.1 97 8.2L93.9 15.5C93.8 15.7 93.8 15.8 93.7 15.9C93.6 16 93.4 15.9 93.2 15.9H91.7C91.6 15.9 91.5 15.9 91.5 15.7L89.9 9.5C89.7 9.3 89.4 9 89 8.9C88.4 8.6 87.3 8.4 87.1 8.4L87 8.2Z" fill="#142688"/>
<path opacity="0.07" d="M158 0H126C124.3 0 123 1.3 123 3V21C123 22.7 124.4 24 126 24H158C159.7 24 161 22.7 161 21V3C161 1.3 159.6 0 158 0Z" fill="black"/>
<path d="M158 1C159.1 1 160 1.9 160 3V21C160 22.1 159.1 23 158 23H126C124.9 23 124 22.1 124 21V3C124 1.9 124.9 1 126 1H158Z" fill="white"/>
<path fill-rule="evenodd" clip-rule="evenodd" d="M134.5 5H138V16.5C138 17.163 137.737 17.7989 137.268 18.2678C136.799 18.7366 136.163 19 135.5 19H132V7.5C132 6.83696 132.263 6.20107 132.732 5.73223C133.201 5.26339 133.837 5 134.5 5Z" fill="#006EBC"/>
<path fill-rule="evenodd" clip-rule="evenodd" d="M141.5 5H145V16.5C145 17.163 144.737 17.7989 144.268 18.2678C143.799 18.7366 143.163 19 142.5 19H139V7.5C139 6.83696 139.263 6.20107 139.732 5.73223C140.201 5.26339 140.837 5 141.5 5Z" fill="#F00036"/>
<path fill-rule="evenodd" clip-rule="evenodd" d="M148.5 5H152V16.5C152 17.163 151.737 17.7989 151.268 18.2678C150.799 18.7366 150.163 19 149.5 19H146V7.5C146 6.83696 146.263 6.20107 146.732 5.73223C147.201 5.26339 147.837 5 148.5 5V5Z" fill="#2AB419"/>
<path d="M133.755 14.5C132.695 14.5 131.633 14.196 131.099 13.513L131.879 12.837C131.947 13.97 135.424 14.077 135.424 12.647V9.50003H137.226V12.647C137.226 13.375 136.652 13.969 135.653 14.279C135.187 14.423 134.288 14.5 133.755 14.5V14.5ZM141.871 14.5C141.197 14.5 140.483 14.393 139.906 14.134C138.958 13.709 138.594 12.928 138.606 11.935C138.618 10.921 139.042 10.153 140.074 9.77003C141.393 9.28003 143.417 9.50903 144 10.04V11.012C143.428 10.491 142.042 10.114 141.081 10.552C140.587 10.778 140.344 11.469 140.337 12C140.331 12.56 140.582 13.252 141.081 13.497C142.034 13.964 143.471 13.537 144 13.056V14.066C143.642 14.321 142.747 14.5 141.871 14.5V14.5ZM150.55 11.913C150.92 11.678 151.132 11.346 151.132 10.908C151.132 10.47 151.016 10.221 150.784 9.96903C150.578 9.76203 150.204 9.50003 149.546 9.50003H146V14.5H149.546C150.242 14.5 150.643 14.27 150.861 14.085C151.144 13.835 151.287 13.555 151.287 13.125C151.287 12.694 151.132 12.217 150.55 11.913V11.913ZM148.644 11.632H147.216V10.188H148.711C149.667 10.188 149.655 11.632 148.644 11.632V11.632ZM148.932 13.789H147.216V12.276H148.932C149.918 12.276 150.015 13.789 148.932 13.789Z" fill="white"/>
<path opacity="0.07" d="M199 0H167C165.3 0 164 1.3 164 3V21C164 22.7 165.4 24 167 24H199C200.7 24 202 22.7 202 21V3C202 1.3 200.6 0 199 0Z" fill="black"/>
<path d="M199 1C200.1 1 201 1.9 201 3V21C201 22.1 200.1 23 199 23H167C165.9 23 165 22.1 165 21V3C165 1.9 165.9 1 167 1H199Z" fill="white"/>
<path d="M179 19C182.866 19 186 15.866 186 12C186 8.13401 182.866 5 179 5C175.134 5 172 8.13401 172 12C172 15.866 175.134 19 179 19Z" fill="#EB001B"/>
<path d="M187 19C190.866 19 194 15.866 194 12C194 8.13401 190.866 5 187 5C183.134 5 180 8.13401 180 12C180 15.866 183.134 19 187 19Z" fill="#F79E1B"/>
<path d="M186 12C186 9.60005 184.8 7.50005 183 6.30005C181.2 7.60005 180 9.70005 180 12C180 14.3 181.2 16.5 183 17.7C184.8 16.5 186 14.4 186 12Z" fill="#FF5F00"/>
<path opacity="0.07" d="M240 0H208C206.3 0 205 1.3 205 3V21C205 22.7 206.4 24 208 24H240C241.7 24 243 22.7 243 21V3C243 1.3 241.6 0 240 0Z" fill="black"/>
<path d="M240 1C241.1 1 242 1.9 242 3V21C242 22.1 241.1 23 240 23H208C206.9 23 206 22.1 206 21V3C206 1.9 206.9 1 208 1H240Z" fill="white"/>
<path d="M242 16.95V21C242 22.1 241.1 23 240 23H228.228C236.124 21.185 240.271 18.399 242 16.95Z" fill="#EDA024"/>
<path d="M214 11H234V13H214V11Z" fill="#494949"/>
<path d="M227 12C227 13.7 225.7 15 224 15C222.3 15 221 13.6 221 12C221 10.4 222.4 9 224 9C225.7 9 227 10.3 227 12Z" fill="#EDA024"/>
</svg>
